<svg width="23" height="24" viewBox="0 0 23 24" fill="none"
                                    xmlns="http://www.w3.org/2000/svg">
                                    <path
                                        d="M12.1222 1.21339L20.2928 5.29868C20.6331 5.46778 20.9195 5.72847 21.1198 6.05144C21.3201 6.3744 21.4263 6.74682 21.4265 7.12684V16.86C21.4263 17.24 21.3201 17.6125 21.1198 17.9354C20.9195 18.2584 20.6331 18.5191 20.2928 18.6882L12.1222 22.7735C11.8384 22.9155 11.5255 22.9894 11.2082 22.9894C10.8908 22.9894 10.5779 22.9155 10.2941 22.7735L2.1235 18.6882C1.78353 18.5169 1.4982 18.254 1.29969 17.9292C1.10118 17.6043 0.9974 17.2305 1.00005 16.8498V7.12684C1.00025 6.74682 1.10646 6.3744 1.30673 6.05144C1.507 5.72847 1.7934 5.46778 2.13372 5.29868L10.3043 1.21339C10.5867 1.07304 10.8979 1 11.2133 1C11.5287 1 11.8398 1.07304 12.1222 1.21339Z"
                                        stroke="#848281" stroke-width="2" stroke-linecap="round"
                                        stroke-linejoin="round"></path>
                                    <path d="M1.32617 6.02393L11.2126 10.9671L21.0989 6.02393" stroke="#848281"
                                        stroke-width="2" stroke-linecap="round" stroke-linejoin="round"></path>
                                    <path d="M11.2129 22.9775V10.9668" stroke="#848281" stroke-width="2"
                                        stroke-linecap="round" stroke-linejoin="round"></path>
                                </svg>