<svg width="92" height="22" viewBox="0 0 92 22" fill="none" xmlns="http://www.w3.org/2000/svg"><path fill-rule="evenodd" clip-rule="evenodd" d="M20.9202 1.10496C21.6098 1.79455 21.9973 2.72976 21.9976 3.70499C21.9984 4.56464 21.6962 5.39708 21.144 6.05588C20.5917 6.71469 19.8249 7.15768 18.9783 7.30694V7.37983C19.8187 7.54374 20.576 7.99476 21.1205 8.65565C21.6649 9.31654 21.9627 10.1462 21.9627 11.0025C21.9627 11.8587 21.6649 12.6884 21.1205 13.3493C20.576 14.0102 19.8187 14.4612 18.9783 14.6251V14.6975C19.8769 14.8715 20.6785 15.3739 21.227 16.1066C21.7754 16.8394 22.0314 17.7502 21.9451 18.6614C21.8587 19.5726 21.4362 20.4191 20.7599 21.0358C20.0835 21.6525 19.2018 21.9954 18.2865 21.9975C16.5204 21.9975 15.0279 20.7252 14.682 19.0506H14.591C14.4261 19.884 13.9762 20.6339 13.3185 21.1717C12.6609 21.7094 11.8365 22.0014 10.987 21.9975C9.22091 21.9975 7.72833 20.7252 7.38246 19.0506H7.29147C7.15855 19.7048 6.8503 20.3106 6.39969 20.8032C5.94907 21.2957 5.37304 21.6565 4.73321 21.847C4.09338 22.0374 3.41381 22.0504 2.76718 21.8844C2.12056 21.7185 1.53121 21.3799 1.06216 20.9048C0.59311 20.4298 0.262012 19.8362 0.104275 19.1875C-0.0534619 18.5389 -0.0319033 17.8595 0.166645 17.2221C0.365193 16.5848 0.733262 16.0134 1.23149 15.569C1.72971 15.1247 2.33934 14.8241 2.99519 14.6995V14.6272C2.15474 14.4633 1.39743 14.0122 0.852975 13.3513C0.308518 12.6904 0.010791 11.8608 0.010791 11.0045C0.010791 10.1482 0.308518 9.31861 0.852975 8.65772C1.39743 7.99683 2.15474 7.5458 2.99519 7.3819V7.30901C2.34001 7.18185 1.73161 6.87929 1.23484 6.4336C0.73807 5.9879 0.371544 5.41576 0.174328 4.77816C-0.0228871 4.14056 -0.0434006 3.46139 0.114974 2.81305C0.273349 2.16471 0.604677 1.5715 1.07364 1.09663C1.54261 0.621762 2.13164 0.283043 2.77795 0.116574C3.42426 -0.049895 4.10363 -0.0378749 4.74364 0.151353C5.38366 0.340581 5.96034 0.699925 6.41221 1.19108C6.86408 1.68224 7.17422 2.28681 7.30956 2.94035H7.40055C7.57431 2.11211 8.02824 1.36909 8.68588 0.836472C9.34351 0.303855 10.1646 0.0142064 11.0109 0.0163315C11.8572 0.0184565 12.6768 0.312226 13.3318 0.848138C13.9867 1.38405 14.4369 2.12935 14.6065 2.95844H14.6975C15.063 1.28388 16.5365 0.0094706 18.3201 0.0275656C19.2954 0.0278397 20.2306 0.41537 20.9202 1.10496ZM6.43853 5.50514C5.80769 5.54576 5.32512 6.07502 5.33474 6.70709C5.35323 7.92218 5.37907 9.87711 5.37907 11.315C5.37907 14.4644 7.94116 17.0475 11.0906 17.0475C14.24 17.0475 16.8021 14.4644 16.8021 11.315C16.8021 9.87711 16.828 7.92218 16.8464 6.70709C16.8561 6.07502 16.3735 5.54576 15.7427 5.50514C14.5199 5.42641 12.5442 5.31586 11.0906 5.31586C9.63703 5.31586 7.66129 5.42641 6.43853 5.50514Z" fill="#00ce44"></path><path d="M33.5176 17.5C33.0136 17.5 32.8516 17.446 32.7436 17.338C32.6356 17.23 32.5816 17.068 32.5816 16.744V5.656C32.5816 5.332 32.6356 5.17 32.7436 5.062C32.8516 4.954 33.0136 4.9 33.5176 4.9H36.7576C38.3056 4.9 39.0616 5.098 39.6556 5.332C41.1496 5.944 41.9596 7.222 41.9596 9.004C41.9596 10.732 41.1496 12.082 39.6016 12.712C38.9536 12.982 38.1976 13.162 36.5416 13.162H34.8856V16.744C34.8856 17.086 34.8136 17.248 34.6876 17.356C34.5976 17.446 34.4356 17.5 33.9496 17.5H33.5176ZM34.8856 11.272H36.4876C37.5676 11.272 38.0716 11.146 38.4676 10.966C39.2596 10.624 39.6196 9.958 39.6196 8.986C39.6196 8.104 39.2776 7.528 38.5756 7.186C38.2156 7.006 37.7116 6.862 36.6496 6.862H34.8856V11.272ZM47.8365 17.752C44.9205 17.752 43.0125 15.718 43.0125 12.784C43.0125 9.85 44.9205 7.78 47.8365 7.78C50.7705 7.78 52.6785 9.85 52.6785 12.784C52.6785 15.718 50.7525 17.752 47.8365 17.752ZM45.2445 12.766C45.2445 14.584 46.1805 15.844 47.8365 15.844C49.4925 15.844 50.4465 14.584 50.4465 12.766C50.4465 10.948 49.4925 9.688 47.8365 9.688C46.1805 9.688 45.2445 10.948 45.2445 12.766ZM58.8493 17.752C55.9153 17.752 54.0253 15.682 54.0253 12.766C54.0253 9.886 55.8973 7.78 58.8493 7.78C60.4153 7.78 61.6033 8.338 62.4133 9.274C62.6293 9.544 62.8093 9.778 62.8093 9.994C62.8093 10.246 62.6653 10.39 62.1973 10.66C61.7473 10.912 61.5493 10.984 61.3693 10.984C61.1353 10.984 60.9373 10.768 60.7033 10.48C60.2353 9.94 59.6233 9.706 58.8673 9.706C57.2473 9.706 56.2573 10.948 56.2573 12.748C56.2573 14.62 57.2653 15.844 58.8673 15.844C59.6053 15.844 60.1633 15.61 60.6853 15.088C61.0633 14.71 61.2613 14.494 61.5133 14.494C61.7113 14.494 61.9273 14.62 62.1973 14.782C62.7373 15.124 62.8453 15.322 62.8453 15.52C62.8453 15.79 62.5033 16.186 62.2513 16.42C61.3873 17.266 60.1993 17.752 58.8493 17.752ZM71.6314 17.5C71.1814 17.5 70.9834 17.464 70.8214 17.41C70.6774 17.338 70.5334 17.212 70.2634 16.906L66.7714 12.694V16.708C66.7714 17.104 66.6994 17.23 66.5914 17.338C66.4834 17.428 66.3574 17.5 65.7994 17.5H65.5294C64.9894 17.5 64.8454 17.41 64.7554 17.32C64.6474 17.212 64.5934 17.086 64.5934 16.708V5.152C64.5934 4.774 64.6474 4.648 64.7554 4.54C64.8454 4.45 64.9894 4.36 65.5294 4.36H65.7994C66.3574 4.36 66.4834 4.432 66.5914 4.522C66.6994 4.63 66.7714 4.756 66.7714 5.152V12.082L69.9214 8.626C70.1914 8.32 70.3534 8.212 70.5334 8.122C70.7494 8.05 70.9474 8.032 71.3974 8.032H71.8654C72.4774 8.032 72.6574 8.176 72.6574 8.374C72.6574 8.536 72.5854 8.68 72.3334 8.932L69.0574 12.298L72.7114 16.6C72.9094 16.852 72.9814 16.996 72.9814 17.14C72.9814 17.338 72.8014 17.5 72.2074 17.5H71.6314ZM78.258 17.752C75.342 17.752 73.29 15.808 73.29 12.712C73.29 9.868 75.09 7.78 77.97 7.78C80.778 7.78 82.344 9.688 82.344 12.082C82.344 12.604 82.254 12.856 82.092 13.018C81.894 13.216 81.588 13.27 80.922 13.27H75.504C75.702 14.908 76.836 15.862 78.564 15.862C79.446 15.862 80.22 15.502 80.652 15.232C80.904 15.07 81.03 15.034 81.156 15.034C81.39 15.034 81.552 15.178 81.804 15.52C82.02 15.826 82.074 15.988 82.074 16.15C82.074 16.384 81.822 16.636 81.444 16.906C80.706 17.392 79.554 17.752 78.258 17.752ZM75.522 11.812H80.22C80.13 10.336 79.32 9.58 77.952 9.58C76.566 9.58 75.702 10.408 75.522 11.812ZM87.8858 17.68C85.4918 17.68 84.7358 16.51 84.7358 14.512V9.778H83.9078C83.4218 9.778 83.2598 9.724 83.1698 9.634C83.0618 9.526 83.0258 9.382 83.0258 9.04V8.77C83.0258 8.446 83.0618 8.302 83.1698 8.194C83.2778 8.086 83.4218 8.032 83.9078 8.032H84.7358V5.926C84.7358 5.548 84.7898 5.422 84.8978 5.314C84.9878 5.206 85.1318 5.134 85.6718 5.134H85.9418C86.4998 5.134 86.6258 5.206 86.7338 5.296C86.8418 5.404 86.9138 5.53 86.9138 5.926V8.032H88.4258C88.9118 8.032 89.0738 8.086 89.1638 8.194C89.2718 8.302 89.3258 8.446 89.3258 8.77V9.04C89.3258 9.382 89.2718 9.526 89.1638 9.634C89.0738 9.724 88.9118 9.778 88.4258 9.778H86.9138V14.17C86.9138 15.322 87.3278 15.88 88.3898 15.88C88.7498 15.88 88.9118 15.808 89.0918 15.808C89.4158 15.808 89.5238 16.024 89.5778 16.474C89.5958 16.618 89.6138 16.798 89.6138 16.924C89.6138 17.284 89.4878 17.446 89.1098 17.536C88.7498 17.626 88.3358 17.68 87.8858 17.68Z" fill="#171717"></path></svg>