<svg width="486" height="401" viewBox="0 0 486 401" fill="none" xmlns="http://www.w3.org/2000/svg">
                <g style="transform: translateY(2.16297px); transform-origin: 61.0871px 192.643px;"
                  transform-origin="61.0871464908123px 192.64348602294922px">
                  <g style="transform: rotate(0.923542deg); transform-origin: 61.0871px 192.643px;"
                    transform-origin="61.0871464908123px 192.64348602294922px">
                    <rect width="110.837" height="68.1232" rx="16.1693"
                      transform="matrix(0.982979 -0.183718 0.185745 0.982598 0.285156 169.356)" fill="white"></rect>
                    <path d="M22.5259 191.291L76.7157 181.163" stroke="#F0F0F0" stroke-width="9.37345"
                      stroke-linecap="round" stroke-linejoin="round" stroke-dasharray="100"
                      stroke-dashoffset="54.838961783494824"></path>
                    <path d="M25.6562 207.826L99.6538 193.996" stroke="#F0F0F0" stroke-width="9.37345"
                      stroke-linecap="round" stroke-linejoin="round" stroke-dasharray="100"
                      stroke-dashoffset="31.17112968332256"></path>
                  </g>
                </g>
                <g style="transform: translateY(2.69688px); transform-origin: 121.862px 215.736px;"
                  transform-origin="121.86157989501953px 215.73636627197266px">
                  <g style="transform: rotate(2.18554deg); transform-origin: 121.862px 215.736px;"
                    transform-origin="121.86157989501953px 215.73636627197266px">
                    <path
                      d="M124.755 200.415C123.097 192.6 111.455 195.756 113.794 203.364C107.192 197.865 99.8823 208.549 107.395 212.701C98.8334 213.471 101.219 226.191 109.473 223.819C103.961 230.413 114.642 237.726 118.804 230.215C119.581 238.771 132.3 236.386 129.928 228.136C136.524 233.645 143.842 222.967 136.328 218.808C144.89 218.037 142.504 205.317 134.25 207.689C139.761 201.088 129.074 193.783 124.913 201.302L124.749 200.424L124.755 200.415Z"
                      fill="var(--pocket)"
                      style="transform: rotate(44.7952deg); transform-origin: 121.862px 215.736px;"
                      transform-origin="121.86157989501953px 215.73636627197266px"></path>
                    <path
                      d="M119.893 217.171L117.297 215.392C114.303 213.357 111.184 217.901 114.167 219.96L119.308 223.483C119.928 223.904 120.661 224.052 121.377 223.922C122.197 223.773 122.932 223.241 123.324 222.488L129.612 210.807C131.313 207.617 126.468 204.997 124.735 208.182L119.894 217.174L119.893 217.171Z"
                      fill="white"></path>
                  </g>
                </g>
                <g style="transform: translateY(-0.622754px); transform-origin: 349.318px 33.6535px;"
                  transform-origin="349.31809997558594px 33.653465270996094px">
                  <g style="transform: rotate(-2.57357deg); transform-origin: 349.318px 33.6535px;"
                    transform-origin="349.31809997558594px 33.653465270996094px">
                    <g style="transform: rotate(10.6214deg); transform-origin: 349.318px 33.6535px;"
                      transform-origin="349.31809997558594px 33.653465270996094px">
                      <path
                        d="M385.848 39.0443C379.816 76.0769 307.857 65.451 312.788 28.2717C318.822 -8.77623 390.781 1.84965 385.848 39.0443Z"
                        fill="var(--graphic-yellow)"></path>
                      <path fill-rule="evenodd" clip-rule="evenodd"
                        d="M366.185 60.1684L320.121 14.1052C324.796 9.63748 331.19 6.93484 338.168 5.82949L381.757 49.4181C378.13 54.6711 372.587 58.2025 366.185 60.1684Z"
                        fill="white" fill-opacity="0.25"
                        style="transform: rotate(1.565deg); transform-origin: 350.939px 32.9989px;"
                        transform-origin="350.9389953613281px 32.9989447593689px"></path>
                      <path fill-rule="evenodd" clip-rule="evenodd"
                        d="M386.09 35.6868C376.789 67.0593 313.318 57.6725 313.541 24.9434C313.229 26.0075 312.976 27.1175 312.788 28.2739C307.858 65.4532 379.817 76.0791 385.848 39.0465C386 37.9012 386.079 36.7811 386.09 35.6868Z"
                        fill="#F6B158"></path>
                    </g>
                  </g>
                </g>
                <g style="transform: translateY(1.52504px); transform-origin: 419.105px 235.084px;"
                  transform-origin="419.1045837402344px 235.0838851928711px">
                  <g style="transform: rotate(-1.43392deg); transform-origin: 419.105px 235.084px;"
                    transform-origin="419.1045837402344px 235.0838851928711px">
                    <g style="transform: rotate(32.8079deg); transform-origin: 419.105px 235.084px;"
                      transform-origin="419.1045837402344px 235.0838851928711px">
                      <path
                        d="M448.496 226.173C458.527 263.158 400.429 279.666 389.515 242.948C379.479 205.947 437.577 189.44 448.496 226.173Z"
                        fill="var(--graphic-yellow)"></path>
                      <path fill-rule="evenodd" clip-rule="evenodd"
                        d="M433.219 259.717L392.992 219.49C395.931 215.201 400.056 211.781 404.76 209.402L444.989 249.63C442.05 253.918 437.924 257.338 433.219 259.717Z"
                        fill="white" fill-opacity="0.25"
                        style="transform: rotate(-52.8079deg); transform-origin: 418.991px 234.56px;"
                        transform-origin="418.9905090332031px 234.55950164794922px"></path>
                      <path fill-rule="evenodd" clip-rule="evenodd"
                        d="M447.556 223.564C453.59 257.914 401.924 272.615 388.952 240.291C389.136 241.339 389.374 242.406 389.668 243.489C400.788 280.929 458.887 264.421 448.65 226.714C448.325 225.618 447.959 224.569 447.556 223.564Z"
                        fill="#F6B158"></path>
                    </g>
                  </g>
                </g>
                <g style="transform: translateY(-1.35223px); transform-origin: 143.139px 63.0534px;"
                  transform-origin="143.13937377929688px 63.05337142944336px">
                  <g style="transform: rotate(-2.46008deg); transform-origin: 143.139px 63.0534px;"
                    transform-origin="143.13937377929688px 63.05337142944336px">
                    <rect width="73.2113" height="66.0587" rx="16.6277"
                      transform="matrix(0.92483 -0.380381 0.377969 0.925818 96.8013 46.3983)" fill="#3EB144"></rect>
                    <path
                      d="M101.592 60.4339C98.4027 52.6221 101.564 43.6449 108.945 39.5516L138.73 23.0342C147.431 18.2087 158.373 22.0576 162.132 31.2667L175.192 63.2561C178.381 71.0678 175.22 80.045 167.839 84.1384L138.054 100.656C129.353 105.481 118.411 101.632 114.652 92.4232L101.592 60.4339Z"
                      fill="var(--pocket)" transform-origin="115.569580078125px 70.02527351379393px"
                      style="transform-origin: 115.57px 70.0253px; transform: scaleX(1.01518) rotate(0.40492deg);">
                    </path>
                    <g style="transform: translateX(0.80984px); transform-origin: 161.861px 51.4462px;"
                      transform-origin="161.8614044189453px 51.4461784362793px">
                      <path
                        d="M148.617 45.5268L161.553 39.4903C164.854 37.95 168.625 37.7656 172.056 38.9767C173.179 39.3728 174.105 40.1844 174.619 41.2584C175.39 42.8676 176.63 45.5347 177.989 48.7758C179.376 52.0821 180.337 54.905 180.872 56.5908C181.11 57.3415 180.443 58.0444 179.676 57.8675L175.964 57.0107C174.26 56.6176 172.474 56.7956 170.88 57.5172L156.983 63.8088C151.589 66.2508 145.272 63.5252 143.349 57.9262C141.677 53.0568 143.951 47.7043 148.617 45.5268Z"
                        fill="var(--graphic-yellow)"
                        style="transform: translateX(-0.30369px) scaleX(0.974692); transform-origin: 161.861px 51.4462px;"
                        transform-origin="161.8614044189453px 51.4461784362793px"></path>
                      <ellipse cx="5.89001" cy="5.9864" rx="5.89001" ry="5.9864"
                        transform="matrix(0.945205 -0.326477 0.324833 0.945771 145.281 50.8491)" fill="#F6B158">
                      </ellipse>
                    </g>
                  </g>
                </g>
                <g>
                  <path
                    d="M473.544 191.198C474.228 189.728 476.303 189.728 476.995 191.198L478.49 194.385C479.416 196.781 482.49 197.813 484.588 198.828C486.049 199.521 486.054 201.611 484.597 202.304L481.438 203.803C480.156 204.411 479.123 205.455 478.523 206.748L477.043 209.934C476.359 211.404 474.284 211.404 473.593 209.934L472.097 206.748C471.171 204.351 468.098 203.319 466 202.304C464.539 201.611 464.533 199.521 465.991 198.828L469.15 197.329C471.526 196.403 472.542 193.309 473.544 191.198Z"
                    fill="var(--graphic-yellow)"
                    style="transform: scale(0.974692) rotate(-17.9703deg); transform-origin: 475.294px 200.566px;"
                    transform-origin="475.2938232421875px 200.5659942626953px"></path>
                  <path
                    d="M110.272 249.181C110.956 247.711 113.031 247.711 113.723 249.181L115.218 252.368C116.144 254.764 119.218 255.796 121.316 256.811C122.777 257.504 122.782 259.595 121.325 260.287L118.166 261.786C116.884 262.394 115.851 263.438 115.251 264.731L113.771 267.917C113.088 269.388 111.012 269.388 110.321 267.917L108.825 264.731C107.899 262.334 104.826 261.303 102.728 260.287C101.267 259.595 101.261 257.504 102.719 256.811L105.878 255.312C108.254 254.386 109.27 251.292 110.272 249.181Z"
                    fill="var(--graphic-yellow)"
                    style="transform: scale(0.917094) rotate(-29.1865deg); transform-origin: 112.022px 258.549px;"
                    transform-origin="112.02181243896484px 258.54937744140625px"></path>
                  <path
                    d="M172.93 193.482C173.649 191.937 175.83 191.937 176.556 193.482L178.128 196.831C179.101 199.349 182.331 200.433 184.535 201.5C186.07 202.228 186.076 204.425 184.544 205.153L181.225 206.728C179.878 207.367 178.793 208.463 178.162 209.822L176.608 213.17C175.889 214.715 173.708 214.715 172.982 213.17L171.41 209.822C170.437 207.303 167.207 206.22 165.003 205.153C163.467 204.425 163.462 202.228 164.993 201.5L168.313 199.925C170.81 198.951 171.877 195.7 172.93 193.482Z"
                    fill="var(--graphic-yellow)"
                    style="transform: scale(0.893955) rotate(-31.9039deg); transform-origin: 174.769px 203.326px;"
                    transform-origin="174.7687530517578px 203.32599639892578px"></path>
                  <path
                    d="M141.748 134.007C142.246 132.937 143.756 132.937 144.259 134.007L145.347 136.325C146.021 138.069 148.257 138.819 149.784 139.558C150.847 140.062 150.851 141.584 149.79 142.088L147.492 143.178C146.559 143.621 145.808 144.38 145.371 145.321L144.295 147.639C143.797 148.709 142.287 148.709 141.784 147.639L140.695 145.321C140.022 143.577 137.785 142.826 136.259 142.088C135.196 141.584 135.192 140.062 136.252 139.558L138.551 138.468C140.28 137.794 141.019 135.542 141.748 134.007Z"
                    fill="var(--graphic-yellow)"
                    style="transform: scale(0.843658) rotate(-36.5708deg); transform-origin: 143.021px 140.823px;"
                    transform-origin="143.02143096923828px 140.822998046875px"></path>
                  <path
                    d="M359.48 223.753C360.012 222.61 361.624 222.61 362.161 223.753L363.323 226.228C364.042 228.09 366.43 228.892 368.06 229.68C369.195 230.219 369.199 231.843 368.067 232.381L365.613 233.545C364.617 234.018 363.815 234.829 363.348 235.833L362.199 238.309C361.668 239.451 360.055 239.451 359.518 238.309L358.356 235.833C357.637 233.971 355.249 233.17 353.619 232.381C352.484 231.843 352.48 230.219 353.612 229.68L356.066 228.516C357.913 227.796 358.702 225.393 359.48 223.753Z"
                    fill="var(--graphic-yellow)"
                    style="transform: scale(0.7671) rotate(-43.461deg); transform-origin: 360.84px 231.031px;"
                    transform-origin="360.8395080566406px 231.03062438964844px"></path>
                  <path
                    d="M441.359 123.299C441.746 122.467 442.921 122.467 443.312 123.299L444.159 125.103C444.683 126.459 446.423 127.043 447.61 127.618C448.437 128.01 448.44 129.194 447.615 129.586L445.827 130.434C445.102 130.778 444.517 131.369 444.177 132.101L443.34 133.905C442.953 134.737 441.778 134.737 441.386 133.905L440.54 132.101C440.016 130.744 438.276 130.16 437.088 129.586C436.261 129.194 436.258 128.01 437.083 127.618L438.871 126.77C440.217 126.245 440.792 124.494 441.359 123.299Z"
                    fill="var(--graphic-yellow)"
                    style="transform: scale(0.751939) rotate(44.8255deg); transform-origin: 442.349px 128.602px;"
                    transform-origin="442.3489990234375px 128.60199737548828px"></path>
                  <path
                    d="M83.9364 125.34C84.3236 124.508 85.4983 124.508 85.8897 125.34L86.7364 127.144C87.2605 128.501 89.0003 129.084 90.1878 129.659C91.015 130.051 91.0181 131.235 90.1929 131.627L88.4048 132.475C87.6791 132.82 87.0945 133.41 86.7546 134.142L85.9173 135.946C85.5302 136.778 84.3555 136.778 83.964 135.946L83.1173 134.142C82.5932 132.785 80.8534 132.202 79.6659 131.627C78.8387 131.235 78.8357 130.051 79.6608 129.659L81.4489 128.811C82.7943 128.286 83.3691 126.535 83.9364 125.34Z"
                    fill="var(--graphic-yellow)"
                    style="transform: scale(0.787978) rotate(41.582deg); transform-origin: 84.9269px 130.643px;"
                    transform-origin="84.9268684387207px 130.64300537109375px"></path>
                </g>
                <g style="transform: translateY(-1.66979px); transform-origin: 302px 200.5px;"
                  transform-origin="302px 200.5px">
                  <g style="transform: rotate(-1.16072deg); transform-origin: 302px 200.5px;"
                    transform-origin="302px 200.5px">
                    <rect width="177.255" height="119.486" rx="16.1693"
                      transform="matrix(0.996349 0.0853785 -0.0827871 0.996567 249.693 40.81)" fill="white"></rect>
                    <circle cx="263.511" cy="57.3244" r="4.00719" transform="rotate(4.89779 263.511 57.3244)"
                      fill="#D9D9D9"></circle>
                    <circle cx="275.315" cy="58.336" r="4.00719" transform="rotate(4.89779 275.315 58.336)"
                      fill="#F6B158"></circle>
                    <circle cx="287.119" cy="59.3474" r="4.00719" transform="rotate(4.89779 287.119 59.3474)"
                      fill="var(--pocket)"></circle>
                    <g mask="url(#pocket-browser-mask)">
                      <rect width="486" height="401" fill="#F0F0F0"></rect>
                      <g style="transform: translateX(-136.072px) translateY(90.8804px) scaleY(0.965016); transform-origin: 404.5px 27px;"
                        transform-origin="404.5px 27.0000057220459px">
                        <path
                          d="M205 27.6918C237.5 54.3576 274.938 55.1781 308.438 27.6918C341.937 0.205404 371.25 0.000261219 405 27.6918"
                          stroke="var(--pocket)" stroke-width="18"></path>
                        <path transform="translate(199, -1)"
                          d="M205 27.6918C237.5 54.3576 274.938 55.1781 308.438 27.6918C341.937 0.205404 371.25 0.000261219 405 27.6918"
                          stroke="var(--pocket)" stroke-width="18"></path>
                      </g>
                    </g>
                    <defs>
                      <mask id="pocket-browser-mask">
                        <rect width="153.434" height="81.5217" rx="6.6" x="260" y="70"
                          transform="rotate(4.89779 263.511 57.3244)" fill="#fff"></rect>
                      </mask>
                    </defs>
                  </g>
                </g>
                <g style="transform: translateY(0.425163px); transform-origin: 354.424px 172.256px;"
                  transform-origin="354.4236297607422px 172.2561798095703px">
                  <g style="transform: rotate(0.61906deg); transform-origin: 354.424px 172.256px;"
                    transform-origin="354.4236297607422px 172.2561798095703px">
                    <g style="transform: rotate(0.990108deg); transform-origin: 354.424px 172.256px;"
                      transform-origin="354.4236297607422px 172.2561798095703px">
                      <path
                        d="M373.236 155.479C367.899 152.437 360.623 153.559 356.223 158.096C354.2 152.108 348.111 147.968 341.985 148.42C335.863 148.873 330.22 153.875 328.795 160.118C327.969 163.728 328.459 167.533 329.623 170.999C330.788 174.465 332.6 177.635 334.477 180.735C336.686 184.382 339.002 187.967 341.591 191.333C343.001 193.166 344.618 195.02 346.802 195.638C347.101 195.723 347.426 195.833 347.685 195.892C347.945 195.95 348.285 195.991 348.591 196.042C350.829 196.423 353.087 195.445 355.148 194.395C358.932 192.469 362.564 190.227 366.126 187.883C369.153 185.892 372.152 183.808 374.693 181.179C377.234 178.55 379.313 175.325 380.118 171.711C381.515 165.461 378.569 158.519 373.236 155.479Z"
                        fill="#F6B158"></path>
                      <ellipse cx="368.935" cy="163.513" rx="4.19591" ry="3.59634"
                        transform="rotate(12.7281 368.935 163.513)" fill="white" fill-opacity="0.15"></ellipse>
                      <ellipse cx="371.929" cy="170.228" rx="2.5412" ry="2.17808"
                        transform="rotate(12.7281 371.929 170.228)" fill="white" fill-opacity="0.15"></ellipse>
                    </g>
                  </g>
                </g>
                <g>
                  <ellipse cx="263.511" cy="382.76" rx="88.5659" ry="17.8077" fill="var(--pocket)"></ellipse>
                  <g>
                    <path d="M254.685 325.848L254.685 324.754L247.608 376.841L240.459 378.877" stroke="#121212"
                      stroke-width="10" stroke-linecap="round" stroke-linejoin="round"
                      transform-origin="247.5719985961914px 378.87701416015625px"
                      style="transform-origin: 247.572px 378.877px; transform: rotate(3.95304deg);"></path>
                    <path d="M272.336 325.848L281.845 361.041L287.041 378.163L294.683 380.23" stroke="#121212"
                      stroke-width="10" stroke-linecap="round" stroke-linejoin="round"
                      transform-origin="283.50950622558594px 380.2300109863281px"
                      style="transform-origin: 283.51px 380.23px; transform: rotate(2.96478deg);"></path>
                    <g transform-origin="268.82598876953125px 344.98199462890625px"
                      style="transform-origin: 268.826px 344.982px; transform: rotate(2.96478deg);">
                      <path
                        d="M338.655 281.788C338.655 281.788 336.162 289.388 328.769 295.182C321.375 300.977 313.222 300.728 313.222 300.728"
                        stroke="#121212" stroke-width="10" stroke-linecap="round" stroke-linejoin="round"
                        transform-origin="313.22198486328125px 300.72955322265625px"
                        style="transform-origin: 313.222px 300.73px; transform: rotate(-3.74904deg);"></path>
                      <path d="M209.723 335.799C209.723 335.799 220.809 309.493 232.842 303.312" stroke="#121212"
                        stroke-width="10" stroke-linecap="round" stroke-linejoin="round"
                        transform-origin="232.8419952392578px 303.31201171875px"
                        style="transform-origin: 232.842px 303.312px; transform: rotate(4deg);"></path>
                      <path
                        d="M275.591 207.614C276.929 202.107 277.424 196.383 270.976 192.017C268.856 190.581 266.252 189.976 263.511 189.976C260.77 189.976 258.167 190.581 256.047 192.017C249.599 196.383 250.094 202.107 251.432 207.614C249.135 203.631 243.051 201.143 237.441 203.566C232.798 205.572 230.96 209.856 230.918 214.38C230.875 218.903 233.151 223.25 236.418 226.584C239.684 229.918 243.888 232.327 248.229 234.333C251.506 235.847 254.172 236.742 258.692 237.696L258.703 237.686C260.288 238.018 261.873 238.112 263.511 238.112C265.149 238.112 266.735 238.018 268.321 237.686L268.331 237.696C272.851 236.742 275.517 235.847 278.794 234.333C283.135 232.327 287.339 229.918 290.606 226.584C293.872 223.25 296.148 218.903 296.106 214.38C296.063 209.856 294.225 205.572 289.582 203.566C283.972 201.143 277.888 203.631 275.591 207.614Z"
                        fill="var(--graphic-yellow)"></path>
                      <path
                        d="M198.998 223.938C198.932 219.833 202.056 216.407 206.151 216.129C218.718 215.274 244.927 213.66 263.511 213.66C282.095 213.66 308.304 215.274 320.871 216.129C324.966 216.407 328.09 219.833 328.024 223.938C327.823 236.444 327.445 262.411 327.445 280.814C327.445 316.068 298.765 344.982 263.511 344.982C228.257 344.982 199.577 316.068 199.577 280.814C199.577 262.411 199.199 236.444 198.998 223.938Z"
                        fill="#F6B158"></path>
                      <g>
                        <g style="transform: none; transform-origin: 263.513px 279.461px;"
                          transform-origin="263.5129928588867px 279.4609832763672px">
                          <ellipse cx="251" cy="279.461" rx="4.3163" ry="4.78313" fill="#121212"></ellipse>
                          <ellipse cx="276.026" cy="279.461" rx="4.3163" ry="4.78313" fill="#121212"></ellipse>
                        </g>
                        <ellipse cx="251" cy="290" rx="4.3163" ry="4.78313" fill="#F6B158"></ellipse>
                        <ellipse cx="276.026" cy="290" rx="4.3163" ry="4.78313" fill="#F6B158"></ellipse>
                        <circle cx="234.834" cy="289.733" r="5.48895" fill="white" fill-opacity="0.2"></circle>
                        <circle cx="292.189" cy="289.733" r="5.48895" fill="white" fill-opacity="0.2"></circle>
                        <path
                          d="M256.677 289.711C256.677 289.711 258.955 292.717 263.51 292.717C268.066 292.717 270.343 289.711 270.343 289.711"
                          stroke="#121212" stroke-width="3.75139" stroke-linecap="round" stroke-linejoin="round">
                        </path>
                      </g>
                    </g>
                  </g>
                </g>
                <g style="transform: translateY(1.45891px); transform-origin: 198.168px 149.793px;"
                  transform-origin="198.1683349609375px 149.7934684753418px">
                  <g style="transform: rotate(-0.36624deg); transform-origin: 198.168px 149.793px;"
                    transform-origin="198.1683349609375px 149.7934684753418px">
                    <path
                      d="M202.373 169.005L219.713 151.672L219.916 151.599C220.183 152.354 220.183 153.211 219.841 154.028L208.205 181.889C207.753 182.973 206.847 183.67 205.821 183.908L202.373 169.005Z"
                      fill="#F6B158"></path>
                    <path
                      d="M179.177 161.051L202.373 169.005L205.821 183.908C204.799 184.144 203.671 183.918 202.788 183.142L180.101 163.223C179.435 162.639 179.059 161.87 178.963 161.075L179.177 161.051Z"
                      fill="var(--graphic-yellow)"></path>
                    <path
                      d="M216.472 149.246L217.021 149.303C218.429 149.443 219.501 150.395 219.916 151.599L219.713 151.672L202.373 169.005L179.178 161.051L178.963 161.075C178.807 159.81 179.357 158.484 180.56 157.74L181.028 157.447L181.161 157.034L199.135 162.795C199.733 162.986 200.362 163.008 200.954 162.871C201.546 162.734 202.097 162.439 202.55 162.005L216.358 148.754L216.659 149.067L216.472 149.246Z"
                      fill="#E6A046"></path>
                    <path
                      d="M219.061 144.737L219.337 144.673C219.439 145.686 219.093 146.733 218.302 147.491L216.659 149.066L216.358 148.754L202.55 162.005C202.097 162.439 201.545 162.734 200.953 162.871L195.574 139.623L219.061 144.737Z"
                      fill="#F6B158"></path>
                    <path
                      d="M181.161 157.034L181.028 157.447L178.609 156.675C177.565 156.341 176.798 155.552 176.442 154.602L176.717 154.539L195.575 139.623L200.954 162.87C200.361 163.007 199.733 162.986 199.135 162.795L181.161 157.034Z"
                      fill="var(--graphic-yellow)"></path>
                    <path
                      d="M218.392 142.642C218.947 143.217 219.262 143.935 219.338 144.677L219.062 144.741L195.574 139.623L190.034 115.68C191.139 115.424 192.373 115.705 193.269 116.636L218.392 142.642Z"
                      fill="var(--graphic-yellow)"></path>
                    <path
                      d="M195.575 139.623L176.716 154.535L176.441 154.598C176.183 153.902 176.151 153.119 176.397 152.359L187.548 117.959C187.945 116.73 188.93 115.935 190.035 115.68L195.575 139.623Z"
                      fill="#FFE2AF"></path>
                  </g>
                </g>
              </svg>